<?xml version="1.0" encoding="UTF-8" standalone="no"?>
<!-- Created with Inkscape (http://www.inkscape.org/) -->

<svg
   width="210mm"
   height="297mm"
   viewBox="0 0 210 297"
   version="1.1"
   id="svg1"
   xml:space="preserve"
   sodipodi:docname="immeuble.svg"
   inkscape:export-filename="..\..\public\assets\immeuble.svg"
   inkscape:export-xdpi="96"
   inkscape:export-ydpi="96"
   inkscape:version="1.3.2 (091e20e, 2023-11-25, custom)"
   xmlns:inkscape="http://www.inkscape.org/namespaces/inkscape"
   xmlns:sodipodi="http://sodipodi.sourceforge.net/DTD/sodipodi-0.dtd"
   xmlns="http://www.w3.org/2000/svg"
   xmlns:svg="http://www.w3.org/2000/svg"><sodipodi:namedview
     id="namedview1"
     pagecolor="#ffffff"
     bordercolor="#000000"
     borderopacity="0.25"
     inkscape:showpageshadow="2"
     inkscape:pageopacity="0.0"
     inkscape:pagecheckerboard="0"
     inkscape:deskcolor="#d1d1d1"
     inkscape:document-units="mm"
     inkscape:zoom="2.0586053"
     inkscape:cx="471.43569"
     inkscape:cy="467.0638"
     inkscape:window-width="1920"
     inkscape:window-height="1094"
     inkscape:window-x="-11"
     inkscape:window-y="-11"
     inkscape:window-maximized="1"
     inkscape:current-layer="svg1" /><defs
     id="defs1"><inkscape:path-effect
       effect="tiling"
       id="path-effect50"
       is_visible="true"
       lpeversion="1"
       unit="px"
       seed="1;1"
       lpesatellites=""
       num_rows="3"
       num_cols="2"
       gapx="116"
       gapy="216"
       offset="0"
       offset_type="false"
       scale="0"
       rotate="0"
       mirrorrowsx="false"
       mirrorrowsy="false"
       mirrorcolsx="false"
       mirrorcolsy="false"
       mirrortrans="false"
       shrink_interp="false"
       split_items="false"
       link_styles="false"
       interpolate_scalex="false"
       interpolate_scaley="true"
       interpolate_rotatex="false"
       interpolate_rotatey="true"
       random_scale="false"
       random_rotate="false"
       random_gap_y="false"
       random_gap_x="false"
       transformorigin="" /><inkscape:path-effect
       effect="tiling"
       id="path-effect49"
       is_visible="true"
       lpeversion="1"
       unit="px"
       seed="1;1"
       lpesatellites=""
       num_rows="3"
       num_cols="2"
       gapx="116"
       gapy="209"
       offset="0"
       offset_type="false"
       scale="0"
       rotate="0"
       mirrorrowsx="false"
       mirrorrowsy="false"
       mirrorcolsx="false"
       mirrorcolsy="false"
       mirrortrans="false"
       shrink_interp="false"
       split_items="false"
       link_styles="false"
       interpolate_scalex="false"
       interpolate_scaley="true"
       interpolate_rotatex="false"
       interpolate_rotatey="true"
       random_scale="false"
       random_rotate="false"
       random_gap_y="false"
       random_gap_x="false"
       transformorigin="" /><inkscape:path-effect
       effect="tiling"
       id="path-effect48"
       is_visible="true"
       lpeversion="1"
       unit="px"
       seed="1;1"
       lpesatellites=""
       num_rows="4"
       num_cols="2"
       gapx="116"
       gapy="228"
       offset="0"
       offset_type="false"
       scale="0"
       rotate="0"
       mirrorrowsx="false"
       mirrorrowsy="false"
       mirrorcolsx="false"
       mirrorcolsy="false"
       mirrortrans="false"
       shrink_interp="false"
       split_items="false"
       link_styles="false"
       interpolate_scalex="false"
       interpolate_scaley="true"
       interpolate_rotatex="false"
       interpolate_rotatey="true"
       random_scale="false"
       random_rotate="false"
       random_gap_y="false"
       random_gap_x="false"
       transformorigin="" /><inkscape:path-effect
       effect="fillet_chamfer"
       id="path-effect47"
       is_visible="true"
       lpeversion="1"
       nodesatellites_param="F,0,0,1,0,25.564073,0,1 @ F,0,1,1,0,25.564073,0,1 @ F,0,1,1,0,25.564073,0,1 @ F,0,1,1,0,25.564073,0,1 | F,0,1,1,0,25.564073,0,1 @ F,0,1,1,0,25.564073,0,1 @ F,0,1,1,0,25.564073,0,1 @ F,0,1,1,0,25.564073,0,1"
       radius="0"
       unit="px"
       method="auto"
       mode="F"
       chamfer_steps="1"
       flexible="false"
       use_knot_distance="true"
       apply_no_radius="true"
       apply_with_radius="true"
       only_selected="false"
       hide_knots="false" /><inkscape:path-effect
       effect="fillet_chamfer"
       id="path-effect46"
       is_visible="true"
       lpeversion="1"
       nodesatellites_param="F,0,0,1,0,25.564073,0,1 @ F,0,1,1,0,25.564073,0,1 @ F,0,1,1,0,25.564073,0,1 @ F,0,1,1,0,25.564073,0,1 | F,0,1,1,0,25.564073,0,1 @ F,0,1,1,0,25.564073,0,1 @ F,0,1,1,0,25.564073,0,1 @ F,0,1,1,0,25.564073,0,1"
       radius="0"
       unit="px"
       method="auto"
       mode="F"
       chamfer_steps="1"
       flexible="false"
       use_knot_distance="true"
       apply_no_radius="true"
       apply_with_radius="true"
       only_selected="false"
       hide_knots="false" /><inkscape:path-effect
       effect="fillet_chamfer"
       id="path-effect45"
       is_visible="true"
       lpeversion="1"
       nodesatellites_param="F,0,0,1,0,26.592278,0,1 @ F,0,1,1,0,26.592278,0,1 @ F,0,1,1,0,26.592278,0,1 @ F,0,1,1,0,26.592278,0,1 | F,0,1,1,0,26.592278,0,1 @ F,0,1,1,0,26.592278,0,1 @ F,0,1,1,0,26.592278,0,1 @ F,0,1,1,0,26.592278,0,1"
       radius="0"
       unit="px"
       method="auto"
       mode="F"
       chamfer_steps="1"
       flexible="false"
       use_knot_distance="true"
       apply_no_radius="true"
       apply_with_radius="true"
       only_selected="false"
       hide_knots="false" /><inkscape:path-effect
       effect="fillet_chamfer"
       id="path-effect44"
       is_visible="true"
       lpeversion="1"
       nodesatellites_param="F,0,0,1,0,0,0,1 @ F,0,0,1,0,0,0,1 @ F,0,0,1,0,0,0,1 @ F,0,0,1,0,0,0,1 | F,0,0,1,0,0,0,1 @ F,0,0,1,0,0,0,1 @ F,0,0,1,0,0,0,1 @ F,0,0,1,0,0,0,1"
       radius="0"
       unit="px"
       method="auto"
       mode="F"
       chamfer_steps="1"
       flexible="false"
       use_knot_distance="true"
       apply_no_radius="true"
       apply_with_radius="true"
       only_selected="false"
       hide_knots="false" /><inkscape:path-effect
       effect="fillet_chamfer"
       id="path-effect42"
       is_visible="true"
       lpeversion="1"
       nodesatellites_param="F,0,0,1,0,0,0,1 @ F,0,0,1,0,0,0,1 @ F,0,0,1,0,0,0,1 @ F,0,0,1,0,0,0,1 | F,0,0,1,0,0,0,1 @ F,0,0,1,0,0,0,1 @ F,0,0,1,0,0,0,1 @ F,0,0,1,0,0,0,1"
       radius="0"
       unit="px"
       method="auto"
       mode="F"
       chamfer_steps="1"
       flexible="false"
       use_knot_distance="true"
       apply_no_radius="true"
       apply_with_radius="true"
       only_selected="false"
       hide_knots="false" /><inkscape:path-effect
       effect="fillet_chamfer"
       id="path-effect41"
       is_visible="true"
       lpeversion="1"
       nodesatellites_param="F,0,0,1,0,0,0,1 @ F,0,0,1,0,0,0,1 @ F,0,0,1,0,0,0,1 @ F,0,0,1,0,0,0,1 | F,0,0,1,0,0,0,1 @ F,0,0,1,0,0,0,1 @ F,0,0,1,0,0,0,1 @ F,0,0,1,0,0,0,1"
       radius="0"
       unit="px"
       method="auto"
       mode="F"
       chamfer_steps="1"
       flexible="false"
       use_knot_distance="true"
       apply_no_radius="true"
       apply_with_radius="true"
       only_selected="false"
       hide_knots="false" /><inkscape:path-effect
       effect="fillet_chamfer"
       id="path-effect40"
       is_visible="true"
       lpeversion="1"
       nodesatellites_param="F,0,0,1,0,0,0,1 @ F,0,0,1,0,0,0,1 @ F,0,0,1,0,0,0,1 @ F,0,0,1,0,0,0,1 | F,0,0,1,0,0,0,1 @ F,0,0,1,0,0,0,1 @ F,0,0,1,0,0,0,1 @ F,0,0,1,0,0,0,1"
       radius="0"
       unit="px"
       method="auto"
       mode="F"
       chamfer_steps="1"
       flexible="false"
       use_knot_distance="true"
       apply_no_radius="true"
       apply_with_radius="true"
       only_selected="false"
       hide_knots="false" /><inkscape:path-effect
       effect="fillet_chamfer"
       id="path-effect27"
       is_visible="true"
       lpeversion="1"
       nodesatellites_param="F,0,1,1,0,39.137703,0,1 @ F,0,0,1,0,39.137703,0,1 @ F,0,1,1,0,39.137703,0,1 @ F,0,1,1,0,39.137703,0,1 @ F,0,1,1,0,39.137703,0,1 @ F,0,1,1,0,39.137703,0,1 @ F,0,1,1,0,39.137703,0,1 @ F,0,1,1,0,39.137703,0,1 | F,0,1,1,0,39.137703,0,1 @ F,0,1,1,0,39.137703,0,1 @ F,0,1,1,0,39.137703,0,1 @ F,0,1,1,0,39.137703,0,1 @ F,0,1,1,0,39.137703,0,1 | F,0,1,1,0,39.137703,0,1 @ F,0,1,1,0,39.137703,0,1 @ F,0,1,1,0,39.137703,0,1 @ F,0,1,1,0,39.137703,0,1 | F,0,1,1,0,39.137703,0,1 @ F,0,1,1,0,39.137703,0,1 @ F,0,1,1,0,39.137703,0,1 @ F,0,1,1,0,39.137703,0,1"
       radius="0"
       unit="px"
       method="auto"
       mode="F"
       chamfer_steps="1"
       flexible="false"
       use_knot_distance="true"
       apply_no_radius="true"
       apply_with_radius="true"
       only_selected="false"
       hide_knots="false" /><inkscape:path-effect
       effect="tiling"
       id="path-effect26"
       is_visible="true"
       lpeversion="1"
       unit="px"
       seed="1;1"
       lpesatellites=""
       num_rows="3"
       num_cols="2"
       gapx="314"
       gapy="424"
       offset="0"
       offset_type="false"
       scale="0"
       rotate="0"
       mirrorrowsx="false"
       mirrorrowsy="false"
       mirrorcolsx="false"
       mirrorcolsy="false"
       mirrortrans="false"
       shrink_interp="false"
       split_items="false"
       link_styles="false"
       interpolate_scalex="false"
       interpolate_scaley="true"
       interpolate_rotatex="false"
       interpolate_rotatey="true"
       random_scale="false"
       random_rotate="false"
       random_gap_y="false"
       random_gap_x="false"
       transformorigin="translate(435.9586,244.7126)" /><inkscape:path-effect
       effect="tiling"
       id="path-effect24"
       is_visible="true"
       lpeversion="1"
       unit="px"
       seed="1;1"
       lpesatellites=""
       num_rows="4"
       num_cols="2"
       gapx="314"
       gapy="433"
       offset="0"
       offset_type="false"
       scale="0"
       rotate="0"
       mirrorrowsx="false"
       mirrorrowsy="false"
       mirrorcolsx="false"
       mirrorcolsy="false"
       mirrortrans="false"
       shrink_interp="false"
       split_items="false"
       link_styles="false"
       interpolate_scalex="false"
       interpolate_scaley="true"
       interpolate_rotatex="false"
       interpolate_rotatey="true"
       random_scale="false"
       random_rotate="false"
       random_gap_y="false"
       random_gap_x="false"
       transformorigin="translate(-432.87397,216.95109)" /><inkscape:path-effect
       effect="tiling"
       id="path-effect4"
       is_visible="true"
       lpeversion="1"
       unit="px"
       seed="1;1"
       lpesatellites=""
       num_rows="3"
       num_cols="2"
       gapx="314"
       gapy="422"
       offset="0"
       offset_type="false"
       scale="0"
       rotate="0"
       mirrorrowsx="false"
       mirrorrowsy="false"
       mirrorcolsx="false"
       mirrorcolsy="false"
       mirrortrans="false"
       shrink_interp="false"
       split_items="false"
       link_styles="false"
       interpolate_scalex="false"
       interpolate_scaley="true"
       interpolate_rotatex="false"
       interpolate_rotatey="true"
       random_scale="false"
       random_rotate="false"
       random_gap_y="false"
       random_gap_x="false"
       transformorigin="translate(-435.95859,216.95109)" /></defs><path
     id="path2"
     style="color:#000000;fill:#1d3f58;fill-opacity:1;-inkscape-stroke:none"
     d="M -100.86336 -380.00048 A 39.137658 39.137658 0 0 0 -139.99864 -340.86001 L -139.99864 -209.14008 A 39.137658 39.137658 0 0 1 -179.1391 -169.99961 L -535.86478 -169.99961 A 39.137703 39.137703 0 0 0 -575.00005 -130.86434 L -575.00005 630.86337 A 39.137703 39.137703 0 0 0 -535.86478 669.99864 L 740.86443 669.99864 A 39.233944 39.233944 0 0 0 780.09838 630.86337 L 781.82272 -71.862789 A 39.041698 39.041698 0 0 0 742.78094 -110.99806 L 384.13875 -110.99806 A 39.137703 39.137703 0 0 1 344.99829 -150.13853 L 344.99829 -340.86001 A 39.137703 39.137703 0 0 0 305.86301 -380.00048 L -100.86336 -380.00048 z M -50.862662 -329.99978 L 255.86231 -329.99978 A 39.137703 39.137703 0 0 1 294.99759 -290.8645 L 294.99759 -144.77853 L 294.99759 580.86267 A 39.137707 39.137707 0 0 1 255.86231 619.99794 L -50.665298 619.99794 A 39.145836 39.145836 0 0 1 -89.810959 580.86267 L -89.992742 -290.8645 A 39.129571 39.129571 0 0 1 -50.862662 -329.99978 z M -40.56336 -257.37489 C -54.681931 -257.37489 -66.127237 -245.92963 -66.127237 -231.81101 L -66.127237 -130.11643 C -66.127237 -115.99783 -54.681931 -104.55256 -40.56336 -104.55256 L 63.182769 -104.55256 C 77.301341 -104.55256 88.746646 -115.99783 88.746646 -130.11643 L 88.746646 -231.81101 C 88.746646 -245.92963 77.301341 -257.37489 63.182769 -257.37489 L -40.56336 -257.37489 z M 145.00587 -257.37489 C 130.88721 -257.37489 119.442 -245.92963 119.442 -231.81101 L 119.442 -130.11643 C 119.442 -115.99783 130.88721 -104.55256 145.00587 -104.55256 L 248.752 -104.55256 C 262.87058 -104.55256 274.31588 -115.99783 274.31588 -130.11643 L 274.31588 -231.81101 C 274.31588 -245.92963 262.87058 -257.37489 248.752 -257.37489 L 145.00587 -257.37489 z M 9.4373402 -207.37419 L 13.182069 -207.37419 C 27.300641 -207.37419 38.745946 -195.92893 38.745946 -181.81031 L 38.745946 -180.11713 C 38.745946 -165.99853 27.300641 -154.55326 13.182069 -154.55326 L 9.4373402 -154.55326 C -4.6813319 -154.55326 -16.126537 -165.99853 -16.126537 -180.11713 L -16.126537 -181.81031 C -16.126537 -195.92893 -4.6813319 -207.37419 9.4373402 -207.37419 z M 195.00138 -207.37419 L 198.7513 -207.37419 C 212.86988 -207.37419 224.31518 -195.92893 224.31518 -181.81031 L 224.31518 -180.11713 C 224.31518 -165.99853 212.86988 -154.55326 198.7513 -154.55326 L 195.00138 -154.55326 C 180.8827 -154.55326 169.4375 -165.99853 169.4375 -180.11713 L 169.4375 -181.81031 C 169.4375 -195.92893 180.8827 -207.37419 195.00138 -207.37419 z M -485.86408 -119.99891 L -179.1391 -119.99891 A 39.137703 39.137703 0 0 1 -139.99864 -80.863642 L -139.99864 580.86267 A 39.137703 39.137703 0 0 1 -179.1391 619.99794 L -485.86408 619.99794 A 39.137703 39.137703 0 0 1 -524.99935 580.86267 L -524.99935 -80.863642 A 39.137703 39.137703 0 0 1 -485.86408 -119.99891 z M 384.13875 -60.000152 L 690.86373 -60.000152 A 39.137703 39.137703 0 0 1 729.999 -20.864879 L 729.999 580.86267 A 39.137703 39.137703 0 0 1 690.86373 619.99794 L 384.13875 619.99794 A 39.137703 39.137703 0 0 1 344.99829 580.86267 L 344.99829 -20.864879 A 39.137703 39.137703 0 0 1 384.13875 -60.000152 z M -40.56336 -44.226586 C -54.681931 -44.226586 -66.127237 -32.781331 -66.127237 -18.662709 L -66.127237 83.026676 C -66.127237 97.145347 -54.681931 108.59055 -40.56336 108.59055 L 63.182769 108.59055 C 77.301341 108.59055 88.746646 97.145347 88.746646 83.026676 L 88.746646 -18.662709 C 88.746646 -32.781331 77.301341 -44.226586 63.182769 -44.226586 L -40.56336 -44.226586 z M 145.00587 -44.226586 C 130.88721 -44.226586 119.442 -32.781331 119.442 -18.662709 L 119.442 83.026676 C 119.442 97.145347 130.88721 108.59055 145.00587 108.59055 L 248.752 108.59055 C 262.87058 108.59055 274.31588 97.145347 274.31588 83.026676 L 274.31588 -18.662709 C 274.31588 -32.781331 262.87058 -44.226586 248.752 -44.226586 L 145.00587 -44.226586 z M -476.95152 -40.248136 C -491.63801 -40.248136 -503.54377 -28.342382 -503.54377 -13.655887 L -503.54377 85.981947 C -503.54377 100.66839 -491.63801 112.5742 -476.95152 112.5742 L -375.25694 112.5742 C -360.57045 112.5742 -348.66469 100.66839 -348.66469 85.981947 L -348.66469 -13.655887 C -348.66469 -28.342382 -360.57045 -40.248136 -375.25694 -40.248136 L -476.95152 -40.248136 z M -291.38229 -40.248136 C -306.06878 -40.248136 -317.97453 -28.342382 -317.97453 -13.655887 L -317.97453 85.981947 C -317.97453 100.66839 -306.06878 112.5742 -291.38229 112.5742 L -189.68771 112.5742 C -175.00121 112.5742 -163.09546 100.66839 -163.09546 85.981947 L -163.09546 -13.655887 C -163.09546 -28.342382 -175.00121 -40.248136 -189.68771 -40.248136 L -291.38229 -40.248136 z M 395.39371 -9.5787549 C 381.27517 -9.5787549 369.82984 1.8665651 369.82984 15.985122 L 369.82984 117.6797 C 369.82984 131.79827 381.27517 143.24358 395.39371 143.24358 L 499.14504 143.24358 C 513.26358 143.24358 524.70891 131.79827 524.70891 117.6797 L 524.70891 15.985122 C 524.70891 1.8665651 513.26358 -9.5787549 499.14504 -9.5787549 L 395.39371 -9.5787549 z M 580.96295 -9.5787549 C 566.84428 -9.5787549 555.39907 1.8665651 555.39907 15.985122 L 555.39907 117.6797 C 555.39907 131.79827 566.84428 143.24358 580.96295 143.24358 L 684.70908 143.24358 C 698.82762 143.24358 710.27295 131.79827 710.27295 117.6797 L 710.27295 15.985122 C 710.27295 1.8665651 698.82762 -9.5787549 684.70908 -9.5787549 L 580.96295 -9.5787549 z M 9.4373402 5.774114 L 13.182069 5.774114 C 27.300641 5.774114 38.745946 17.219319 38.745946 31.337991 L 38.745946 33.025976 C 38.745946 47.144648 27.300641 58.589853 13.182069 58.589853 L 9.4373402 58.589853 C -4.6813319 58.589853 -16.126537 47.144648 -16.126537 33.025976 L -16.126537 31.337991 C -16.126537 17.219319 -4.6813319 5.774114 9.4373402 5.774114 z M 195.00138 5.774114 L 198.7513 5.774114 C 212.86988 5.774114 224.31518 17.219319 224.31518 31.337991 L 224.31518 33.025976 C 224.31518 47.144648 212.86988 58.589853 198.7513 58.589853 L 195.00138 58.589853 C 180.8827 58.589853 169.4375 47.144648 169.4375 33.025976 L 169.4375 31.337991 C 169.4375 17.219319 180.8827 5.774114 195.00138 5.774114 z M -426.95082 9.7525638 L -425.25764 9.7525638 C -410.57115 9.7525638 -398.66539 21.658268 -398.66539 36.344813 C -398.766 50.930651 -410.67172 62.674103 -425.25764 62.573496 L -426.95082 62.573496 C -441.63731 62.573496 -453.54307 50.667692 -453.54307 35.981247 C -453.44246 21.395308 -441.53673 9.6519572 -426.95082 9.7525638 z M -241.38159 9.7525638 L -239.68841 9.7525638 C -225.00191 9.7525638 -213.09616 21.658268 -213.09616 36.344813 C -213.19676 50.930651 -225.1025 62.674103 -239.68841 62.573496 L -241.38159 62.573496 C -256.06808 62.573496 -267.97383 50.667692 -267.97383 35.981247 C -267.87323 21.395308 -255.96748 9.6519572 -241.38159 9.7525638 z M 445.39441 40.421945 L 449.14434 40.421945 C 463.26288 40.421945 474.70821 51.867164 474.70821 65.985822 L 474.70821 67.679 C 474.70821 81.797558 463.26288 93.242878 449.14434 93.242878 L 445.39441 93.242878 C 431.27577 93.242878 419.83054 81.797558 419.83054 67.679 L 419.83054 65.985822 C 419.83054 51.867164 431.27577 40.421945 445.39441 40.421945 z M 630.96365 40.421945 L 634.71357 40.421945 C 648.83214 40.421945 660.27745 51.867164 660.27745 65.985822 L 660.27745 67.679 C 660.27745 81.797558 648.83214 93.242878 634.71357 93.242878 L 630.96365 93.242878 C 616.84498 93.242878 605.39977 81.797558 605.39977 67.679 L 605.39977 65.985822 C 605.39977 51.867164 616.84498 40.421945 630.96365 40.421945 z M -40.56336 168.91652 C -54.681931 168.91652 -66.127237 180.36184 -66.127237 194.4804 L -66.127237 296.17498 C -66.127237 310.29356 -54.681931 321.73886 -40.56336 321.73886 L 63.182769 321.73886 C 77.301341 321.73886 88.746646 310.29356 88.746646 296.17498 L 88.746646 194.4804 C 88.746646 180.36184 77.301341 168.91652 63.182769 168.91652 L -40.56336 168.91652 z M 145.00587 168.91652 C 130.88721 168.91652 119.442 180.36184 119.442 194.4804 L 119.442 296.17498 C 119.442 310.29356 130.88721 321.73886 145.00587 321.73886 L 248.752 321.73886 C 262.87058 321.73886 274.31588 310.29356 274.31588 296.17498 L 274.31588 194.4804 C 274.31588 180.36184 262.87058 168.91652 248.752 168.91652 L 145.00587 168.91652 z M -476.95152 169.72156 C -491.63801 169.72156 -503.54377 181.63246 -503.54377 196.31901 L -503.54377 295.95165 C -503.54377 310.63809 -491.63801 322.5439 -476.95152 322.5439 L -375.25694 322.5439 C -360.57045 322.5439 -348.66469 310.63809 -348.66469 295.95165 L -348.66469 196.31901 C -348.66469 181.63246 -360.57045 169.72156 -375.25694 169.72156 L -476.95152 169.72156 z M -291.38229 169.72156 C -306.06878 169.72156 -317.97453 181.63246 -317.97453 196.31901 L -317.97453 295.95165 C -317.97453 310.63809 -306.06878 322.5439 -291.38229 322.5439 L -189.68771 322.5439 C -175.00121 322.5439 -163.09546 310.63809 -163.09546 295.95165 L -163.09546 196.31901 C -163.09546 181.63246 -175.00121 169.72156 -189.68771 169.72156 L -291.38229 169.72156 z M 395.39371 198.54195 C 381.27517 198.54195 369.82984 209.98726 369.82984 224.10583 L 369.82984 325.80041 C 369.82984 339.91895 381.27517 351.36428 395.39371 351.36428 L 499.14504 351.36428 C 513.26358 351.36428 524.70891 339.91895 524.70891 325.80041 L 524.70891 224.10583 C 524.70891 209.98726 513.26358 198.54195 499.14504 198.54195 L 395.39371 198.54195 z M 580.96295 198.54195 C 566.84428 198.54195 555.39907 209.98726 555.39907 224.10583 L 555.39907 325.80041 C 555.39907 339.91895 566.84428 351.36428 580.96295 351.36428 L 684.70908 351.36428 C 698.82762 351.36428 710.27295 339.91895 710.27295 325.80041 L 710.27295 224.10583 C 710.27295 209.98726 698.82762 198.54195 684.70908 198.54195 L 580.96295 198.54195 z M 9.4373402 218.91722 L 13.182069 218.91722 C 27.300641 218.91722 38.745946 230.36254 38.745946 244.4811 L 38.745946 246.17428 C 38.745946 260.29286 27.300641 271.73816 13.182069 271.73816 L 9.4373402 271.73816 C -4.6813319 271.73816 -16.126537 260.29286 -16.126537 246.17428 L -16.126537 244.4811 C -16.126537 230.36254 -4.6813319 218.91722 9.4373402 218.91722 z M 195.00138 218.91722 L 198.7513 218.91722 C 212.86988 218.91722 224.31518 230.36254 224.31518 244.4811 L 224.31518 246.17428 C 224.31518 260.29286 212.86988 271.73816 198.7513 271.73816 L 195.00138 271.73816 C 180.8827 271.73816 169.4375 260.29286 169.4375 246.17428 L 169.4375 244.4811 C 169.4375 230.36254 180.8827 218.91722 195.00138 218.91722 z M -426.95082 219.72226 L -425.25764 219.72226 C -410.57115 219.72226 -398.66539 231.62807 -398.66539 246.31451 C -398.766 260.90045 -410.67172 272.6437 -425.25764 272.5432 L -426.95082 272.5432 C -441.63731 272.5432 -453.54307 260.63739 -453.54307 245.95095 C -453.44246 231.36501 -441.53673 219.62176 -426.95082 219.72226 z M -241.38159 219.72226 L -239.68841 219.72226 C -225.00191 219.72226 -213.09616 231.62807 -213.09616 246.31451 C -213.19676 260.90045 -225.1025 272.6437 -239.68841 272.5432 L -241.38159 272.5432 C -256.06808 272.5432 -267.97383 260.63739 -267.97383 245.95095 C -267.87323 231.36501 -255.96748 219.62176 -241.38159 219.72226 z M 445.39441 248.54265 L 449.14434 248.54265 C 463.26288 248.54265 474.70821 259.98796 474.70821 274.10653 L 474.70821 275.79971 C 474.70821 289.91825 463.26288 301.36358 449.14434 301.36358 L 445.39441 301.36358 C 431.27577 301.36358 419.83054 289.91825 419.83054 275.79971 L 419.83054 274.10653 C 419.83054 259.98796 431.27577 248.54265 445.39441 248.54265 z M 630.96365 248.54265 L 634.71357 248.54265 C 648.83214 248.54265 660.27745 259.98796 660.27745 274.10653 L 660.27745 275.79971 C 660.27745 289.91825 648.83214 301.36358 634.71357 301.36358 L 630.96365 301.36358 C 616.84498 301.36358 605.39977 289.91825 605.39977 275.79971 L 605.39977 274.10653 C 605.39977 259.98796 616.84498 248.54265 630.96365 248.54265 z M -476.95152 379.69646 C -491.63801 379.69646 -503.54377 391.60226 -503.54377 406.28871 L -503.54377 505.92135 C -503.54377 520.60789 -491.63801 532.51359 -476.95152 532.51359 L -375.25694 532.51359 C -360.57045 532.51359 -348.66469 520.60789 -348.66469 505.92135 L -348.66469 406.28871 C -348.66469 391.60226 -360.57045 379.69646 -375.25694 379.69646 L -476.95152 379.69646 z M -291.38229 379.69646 C -306.06878 379.69646 -317.97453 391.60226 -317.97453 406.28871 L -317.97453 505.92135 C -317.97453 520.60789 -306.06878 532.51359 -291.38229 532.51359 L -189.68771 532.51359 C -175.00121 532.51359 -163.09546 520.60789 -163.09546 505.92135 L -163.09546 406.28871 C -163.09546 391.60226 -175.00121 379.69646 -189.68771 379.69646 L -291.38229 379.69646 z M -40.56336 382.05963 C -54.681931 382.05963 -66.127237 393.51013 -66.127237 407.62871 L -66.127237 509.31809 C -66.127237 523.43667 -54.681931 534.88197 -40.56336 534.88197 L 63.182769 534.88197 C 77.301341 534.88197 88.746646 523.43667 88.746646 509.31809 L 88.746646 407.62871 C 88.746646 393.51013 77.301341 382.05963 63.182769 382.05963 L -40.56336 382.05963 z M 145.00587 382.05963 C 130.88721 382.05963 119.442 393.51013 119.442 407.62871 L 119.442 509.31809 C 119.442 523.43667 130.88721 534.88197 145.00587 534.88197 L 248.752 534.88197 C 262.87058 534.88197 274.31588 523.43667 274.31588 509.31809 L 274.31588 407.62871 C 274.31588 393.51013 262.87058 382.05963 248.752 382.05963 L 145.00587 382.05963 z M 395.39371 406.65747 C 381.27517 406.65747 369.82984 418.10787 369.82984 432.22654 L 369.82984 533.91592 C 369.82984 548.03459 381.27517 559.4798 395.39371 559.4798 L 499.14504 559.4798 C 513.26358 559.4798 524.70891 548.03459 524.70891 533.91592 L 524.70891 432.22654 C 524.70891 418.10787 513.26358 406.65747 499.14504 406.65747 L 395.39371 406.65747 z M 580.96295 406.65747 C 566.84428 406.65747 555.39907 418.10787 555.39907 432.22654 L 555.39907 533.91592 C 555.39907 548.03459 566.84428 559.4798 580.96295 559.4798 L 684.70908 559.4798 C 698.82762 559.4798 710.27295 548.03459 710.27295 533.91592 L 710.27295 432.22654 C 710.27295 418.10787 698.82762 406.65747 684.70908 406.65747 L 580.96295 406.65747 z M -426.95082 429.69196 L -425.25764 429.69196 C -410.57115 429.69196 -398.66539 441.59777 -398.66539 456.28421 C -398.766 470.87015 -410.67172 482.6134 -425.25764 482.51289 L -426.95082 482.51289 C -441.63731 482.51289 -453.54307 470.60719 -453.54307 455.92065 C -453.44246 441.33471 -441.53673 429.59136 -426.95082 429.69196 z M -241.38159 429.69196 L -239.68841 429.69196 C -225.00191 429.69196 -213.09616 441.59777 -213.09616 456.28421 C -213.19676 470.87015 -225.1025 482.6134 -239.68841 482.51289 L -241.38159 482.51289 C -256.06808 482.51289 -267.97383 470.60719 -267.97383 455.92065 C -267.87323 441.33471 -255.96748 429.59136 -241.38159 429.69196 z M 9.4373402 432.06033 L 13.182069 432.06033 C 27.300641 432.06033 38.745946 443.50565 38.745946 457.62421 L 38.745946 459.31739 C 38.745946 473.43597 27.300641 484.88127 13.182069 484.88127 L 9.4373402 484.88127 C -4.6813319 484.88127 -16.126537 473.43597 -16.126537 459.31739 L -16.126537 457.62421 C -16.126537 443.50565 -4.6813319 432.06033 9.4373402 432.06033 z M 195.00138 432.06033 L 198.7513 432.06033 C 212.86988 432.06033 224.31518 443.50565 224.31518 457.62421 L 224.31518 459.31739 C 224.31518 473.43597 212.86988 484.88127 198.7513 484.88127 L 195.00138 484.88127 C 180.8827 484.88127 169.4375 473.43597 169.4375 459.31739 L 169.4375 457.62421 C 169.4375 443.50565 180.8827 432.06033 195.00138 432.06033 z M 445.39441 456.65816 L 449.14434 456.65816 C 463.26288 456.65816 474.70821 468.1034 474.70821 482.22204 L 474.70821 483.91522 C 474.70821 498.03389 463.26288 509.4791 449.14434 509.4791 L 445.39441 509.4791 C 431.27577 509.4791 419.83054 498.03389 419.83054 483.91522 L 419.83054 482.22204 C 419.83054 468.1034 431.27577 456.65816 445.39441 456.65816 z M 630.96365 456.65816 L 634.71357 456.65816 C 648.83214 456.65816 660.27745 468.1034 660.27745 482.22204 L 660.27745 483.91522 C 660.27745 498.03389 648.83214 509.4791 634.71357 509.4791 L 630.96365 509.4791 C 616.84498 509.4791 605.39977 498.03389 605.39977 483.91522 L 605.39977 482.22204 C 605.39977 468.1034 616.84498 456.65816 630.96365 456.65816 z "
     transform="matrix(0.09949641,0,0,0.09949641,108.20061,101.3092)" /></svg>
