<?xml version="1.0" encoding="UTF-8" standalone="no"?>
<!-- Created with Inkscape (http://www.inkscape.org/) -->

<svg
   width="61.195553mm"
   height="81.901863mm"
   viewBox="0 0 61.195553 81.901863"
   version="1.1"
   id="svg5"
   inkscape:version="1.2.2 (732a01da63, 2022-12-09)"
   sodipodi:docname="compte.svg"
   xmlns:inkscape="http://www.inkscape.org/namespaces/inkscape"
   xmlns:sodipodi="http://sodipodi.sourceforge.net/DTD/sodipodi-0.dtd"
   xmlns="http://www.w3.org/2000/svg"
   xmlns:svg="http://www.w3.org/2000/svg">
  <sodipodi:namedview
     id="namedview7"
     pagecolor="#ffffff"
     bordercolor="#000000"
     borderopacity="0.25"
     inkscape:showpageshadow="2"
     inkscape:pageopacity="0.0"
     inkscape:pagecheckerboard="0"
     inkscape:deskcolor="#d1d1d1"
     inkscape:document-units="mm"
     showgrid="false"
     inkscape:zoom="1"
     inkscape:cx="413.49999"
     inkscape:cy="322.99999"
     inkscape:window-width="1920"
     inkscape:window-height="974"
     inkscape:window-x="-11"
     inkscape:window-y="-11"
     inkscape:window-maximized="1"
     inkscape:current-layer="layer1" />
  <defs
     id="defs2" />
  <g
     inkscape:label="Calque 1"
     inkscape:groupmode="layer"
     id="layer1"
     transform="translate(-74.247825,-89.375539)">
    <path
       id="path464-2"
       style="fill:#000000;stroke-width:0.264583"
       d="M 104.63512 89.376056 C 104.47825 89.374729 104.32089 89.375967 104.16383 89.379156 C 96.923614 89.319016 89.892934 93.949791 87.128176 100.64927 C 84.320328 107.064 85.580141 115.02875 90.271136 120.2367 C 94.590245 125.1547 101.61065 127.55705 108.02406 126.13609 C 114.44159 124.78493 120.02392 119.8575 121.91985 113.54409 C 123.9359 107.2221 122.33518 99.817872 117.6121 95.09457 C 114.24661 91.613665 109.49812 89.41717 104.63512 89.376056 z M 104.11577 96.242303 C 104.24253 96.241809 104.36926 96.24379 104.49611 96.247988 C 109.60033 96.310098 114.38979 100.11507 115.56055 105.09344 C 116.64013 109.28339 115.0972 114.12839 111.71272 116.9258 C 110.40356 117.99568 108.70198 118.92356 106.96417 119.30705 C 105.30357 119.69702 103.57436 119.71558 101.99652 119.41453 C 97.850409 118.70356 94.287007 115.51066 93.09577 111.48065 C 92.049873 108.27013 92.449485 104.61251 94.291046 101.76548 C 96.325191 98.507575 100.18621 96.257629 104.11577 96.242303 z M 105.0046 128.40365 C 104.54563 128.40565 103.93662 128.41907 103.4941 128.42277 C 96.531566 128.57061 89.331156 129.68013 83.289134 133.35528 C 78.554031 136.25634 74.824487 141.21306 74.309837 146.84593 C 74.177215 150.37036 74.256093 157.42513 74.256093 157.42513 L 74.256093 171.27752 L 81.361603 171.27752 C 81.361603 171.27752 81.291452 155.42918 81.427232 147.51463 C 82.310672 143.88801 85.066316 140.9238 88.173073 139.10584 C 91.895252 136.91921 96.249205 135.94534 100.43021 135.59132 C 102.52542 135.42279 103.61624 135.3555 105.0046 135.36188 C 106.53282 135.36888 107.99122 135.46093 109.29426 135.56393 C 113.47527 135.91795 117.82921 136.8913 121.5514 139.07793 C 124.65814 140.89589 127.4138 143.8601 128.29724 147.48672 C 128.43294 155.40127 128.36287 171.24961 128.36287 171.24961 L 135.46838 171.24961 L 135.46838 157.39774 C 135.46838 157.39774 135.54733 150.34244 135.41463 146.81803 C 134.89998 141.18514 131.17043 136.22895 126.43534 133.32789 C 120.3933 129.65274 113.1929 128.56751 106.23037 128.41967 C 105.79223 128.41567 105.46357 128.40115 105.0046 128.40365 z " />
  </g>
</svg>
