<?xml version="1.0" encoding="UTF-8" standalone="no"?>
<!-- Created with Inkscape (http://www.inkscape.org/) -->

<svg
   width="61.195553mm"
   height="81.901863mm"
   viewBox="0 0 61.195553 81.901863"
   version="1.1"
   id="svg5"
   inkscape:version="1.2.2 (732a01da63, 2022-12-09)"
   sodipodi:docname="ajoutCompte.svg"
   xmlns:inkscape="http://www.inkscape.org/namespaces/inkscape"
   xmlns:sodipodi="http://sodipodi.sourceforge.net/DTD/sodipodi-0.dtd"
   xmlns="http://www.w3.org/2000/svg"
   xmlns:svg="http://www.w3.org/2000/svg">
  <sodipodi:namedview
     id="namedview7"
     pagecolor="#ffffff"
     bordercolor="#000000"
     borderopacity="0.25"
     inkscape:showpageshadow="2"
     inkscape:pageopacity="0.0"
     inkscape:pagecheckerboard="0"
     inkscape:deskcolor="#d1d1d1"
     inkscape:document-units="mm"
     showgrid="false"
     inkscape:zoom="2.0000001"
     inkscape:cx="374.24999"
     inkscape:cy="144"
     inkscape:window-width="1920"
     inkscape:window-height="974"
     inkscape:window-x="-11"
     inkscape:window-y="-11"
     inkscape:window-maximized="1"
     inkscape:current-layer="layer1" />
  <defs
     id="defs2" />
  <g
     inkscape:label="Calque 1"
     inkscape:groupmode="layer"
     id="layer1"
     transform="translate(-74.247825,-89.375539)">
    <path
       id="path464-2"
       style="fill:#000000;stroke-width:0.264583"
       d="m 104.63512,89.376056 c -0.15687,-0.0013 -0.31423,-8.9e-5 -0.47129,0.0031 -7.240216,-0.06014 -14.270896,4.570635 -17.035654,11.270114 -2.807848,6.41473 -1.548035,14.37948 3.14296,19.58743 4.319109,4.918 11.339514,7.32035 17.752924,5.89939 6.41753,-1.35116 11.99986,-6.27859 13.89579,-12.592 2.01605,-6.32199 0.41533,-13.726218 -4.30775,-18.44952 -3.36549,-3.480905 -8.11398,-5.6774 -12.97698,-5.718514 z m -0.51935,6.866247 c 0.12676,-4.94e-4 0.25349,0.0015 0.38034,0.0057 5.10422,0.06211 9.89368,3.867087 11.06444,8.845457 1.07958,4.18995 -0.46335,9.03495 -3.84783,11.83236 -1.30916,1.06987 -3.01074,1.99776 -4.74855,2.38124 -1.6606,0.38998 -3.38981,0.40854 -4.96765,0.10748 -4.146111,-0.71096 -7.709513,-3.90387 -8.90075,-7.93387 -1.045897,-3.21053 -0.646285,-6.86814 1.195276,-9.71518 2.034145,-3.2579 5.895164,-5.507846 9.824724,-5.523172 z m 0.69556,32.200617 -5.1e-4,5.2e-4 c -0.43956,-0.002 -0.87858,-1.4e-4 -1.31672,0.004 -6.962543,0.14784 -14.162938,1.23255 -20.204966,4.90771 -4.735107,2.90106 -8.464646,7.85777 -8.979297,13.49065 -0.09664,8.33754 -0.05374,24.43159 -0.05374,24.43159 h 7.10551 c 0.02846,-7.91994 -0.07015,-15.84833 0.06563,-23.76289 0.883441,-3.62662 3.639081,-6.59083 6.745841,-8.40879 3.722183,-2.18663 8.076127,-3.1605 12.257132,-3.51452 4.19045,-0.33706 8.49926,-0.22674 12.58217,0.48421 2.55837,0.47085 5.12606,1.22339 7.45691,2.40967 1.12883,0.10554 2.24671,0.32259 3.32952,0.66094 5.80506,1.68301 10.33077,6.87325 11.3962,12.79561 0.10838,0.55272 0.18328,1.10934 0.22893,1.66759 -0.005,-0.31688 -0.008,-0.63235 0.002,-0.94051 -0.0768,-2.86217 0.30093,-5.79213 -0.56482,-8.57518 -1.53776,-5.34897 -5.78337,-9.59431 -10.7363,-11.94294 -5.99589,-2.8866 -12.72024,-3.67829 -19.31355,-3.70779 z m 13.8405,10.98486 c -0.32716,-1.2e-4 -0.65431,0.01 -0.98082,0.0315 -6.32332,0.28655 -12.17952,4.88797 -13.91801,10.98228 -1.89509,6.01624 0.43258,13.008 5.46375,16.77934 4.60516,3.52354 11.23469,4.13365 16.37626,1.42627 5.08191,-2.53195 8.46106,-8.05491 8.42378,-13.72785 0.0753,-5.81334 -3.4465,-11.49327 -8.7297,-13.94747 -2.05574,-1.00722 -4.34508,-1.54329 -6.63526,-1.54409 z m -0.13436,4.55528 c 0.0965,-5.8e-4 0.19335,7e-5 0.28991,0.003 5.37168,0.0137 10.26026,4.58183 10.62674,9.94565 0.18665,2.00159 -0.30684,4.34091 -1.35444,6.19187 -1.4244,2.6967 -4.13454,4.84417 -7.23625,5.4131 -4.81237,1.08724 -10.2279,-1.50158 -12.1636,-6.09213 -1.78959,-3.88055 -1.14813,-8.81838 1.86655,-11.91607 2.02247,-2.20237 4.97895,-3.52671 7.97109,-3.54449 z m -1.65106,1.75493 c -0.80287,-0.0124 -1.44177,0.53249 -1.43764,1.43764 v 4.73098 h -4.73097 c -0.80349,0 -1.43868,0.69803 -1.43764,1.43763 v 3.28766 c 0.007,0.82057 0.63842,1.45156 1.43764,1.44332 h 4.73097 V 162.8 c -0.004,0.87117 0.62117,1.4671 1.43764,1.44332 h 3.28766 c 0.79103,0 1.46531,-0.6515 1.44332,-1.44797 v -4.72013 h 4.72529 c 0.85743,0.0164 1.42618,-0.57485 1.44281,-1.44332 v -3.28766 c -0.001,-0.84551 -0.60862,-1.4221 -1.44281,-1.43763 h -4.72529 v -4.73098 c 0.0258,-0.78247 -0.63227,-1.42939 -1.44332,-1.43764 z m 18.56424,12.4225 c -1.33518,4.57535 -2.22515,6.19746 -7.10809,10.37299 v 2.74195 h 7.10551 l 0.003,-13.11496 z"
       sodipodi:nodetypes="sccccccsccccccccscccccccccccccccccccsccccccscccccccccccccccccccsccccccccccccccccccc" />
  </g>
</svg>
