<?xml version="1.0" encoding="UTF-8" standalone="no"?>
<svg
   width="66mm"
   height="40mm"
   viewBox="0 0 66 40"
   version="1.1"
   id="svg1"
   xmlns="http://www.w3.org/2000/svg"
   xmlns:svg="http://www.w3.org/2000/svg">
  <defs
     id="defs1" />
  <a
     id="a9"
     transform="translate(-60,-140)">
    <path
       style="color:#000000;fill:#1D3F58;stroke:none;stroke-width:1;stroke-dasharray:none;stroke-opacity:1"
       d="m 60,144.06231 v 31.76541 C 60,178.13201 61.867992,180 64.172278,180 H 93 v -6 H 68.711528 C 67.213992,174 66,172.78601 66,171.28847 v -18.53212 c 0,-1.20553 1.321409,-1.94461 2.348607,-1.31361 l 20.788515,12.7703 c 1.201569,0.64453 2.577205,0.70856 3.862878,0.78264 v -6.09998 c -0.903482,0.0178 -1.60447,-0.21367 -2.476799,-0.64761 L 73.366079,148.00885 C 72.423654,147.44642 72.82245,146 73.919944,146 H 93 v -6 H 64.062306 C 61.818756,140 60,141.81876 60,144.06231 Z m 66,0 v 31.76541 C 126,178.13201 124.13201,180 121.82772,180 H 93 v -6 h 24.28847 C 118.78601,174 120,172.78601 120,171.28847 v -18.53212 c 0,-1.20553 -1.32141,-1.94461 -2.34861,-1.31361 l -20.788512,12.7703 C 95.661309,164.85757 94.285673,164.9216 93,164.99568 v -6.09998 c 0.903482,0.0178 1.60447,-0.21367 2.476799,-0.64761 L 112.63392,148.00885 C 113.57635,147.44642 113.17755,146 112.08006,146 H 93 v -6 h 28.93769 c 2.24355,0 4.06231,1.81876 4.06231,4.06231 z"
       id="path8" />
  </a>
</svg>
