<?xml version="1.0" encoding="UTF-8" standalone="no"?>
<!-- Created with Inkscape (http://www.inkscape.org/) -->

<svg
   width="134.51552mm"
   height="116.51637mm"
   viewBox="0 0 134.51552 116.51637"
   version="1.1"
   id="svg1"
   xml:space="preserve"
   xmlns="http://www.w3.org/2000/svg"
   xmlns:svg="http://www.w3.org/2000/svg"><defs
     id="defs1" /><path
     style="fill:none;fill-opacity:1;stroke:#1d3f58;stroke-width:13.8544;stroke-dasharray:none;stroke-opacity:1"
     d="m 44.122674,108.92882 v 81.6557 a 10.503119,10.503119 45 0 0 10.503119,10.50312 l 99.654857,0 a 10.503119,10.503119 135 0 0 10.50312,-10.50312 l 0,-57.6568 A 10.503119,10.503119 45 0 0 154.28065,122.4246 h -39.99094 a 10.503119,10.503119 45 0 1 -10.50312,-10.50312 l 0,-2.99266 A 10.503119,10.503119 45 0 0 93.283471,98.425702 H 54.625793 A 10.503119,10.503119 135 0 0 44.122674,108.92882 Z"
     id="path50"
     transform="translate(-37.195462,-91.498487)" /><path
     style="fill:none;fill-opacity:1;stroke:#1d3f58;stroke-width:7.157;stroke-dasharray:none;stroke-opacity:1"
     id="rect50"
     width="12.484745"
     height="10.671591"
     x="133.50085"
     y="141.01253"
     d="m 134.27793,141.01253 h 10.9306 c 0.4305,0 0.77707,0.34657 0.77707,0.77707 v 9.11745 c 0,0.43049 -0.34657,0.77707 -0.77707,0.77707 h -10.9306 c -0.4305,0 -0.77708,-0.34658 -0.77708,-0.77707 v -9.11745 c 0,-0.4305 0.34658,-0.77707 0.77708,-0.77707 z m 29.41807,0 h 10.93061 c 0.43049,0 0.77707,0.34657 0.77707,0.77707 v 9.11745 c 0,0.43049 -0.34658,0.77707 -0.77707,0.77707 H 163.696 c -0.43049,0 -0.77707,-0.34658 -0.77707,-0.77707 v -9.11745 c 0,-0.4305 0.34658,-0.77707 0.77707,-0.77707 z m 29.41808,0 h 10.93061 c 0.43049,0 0.77707,0.34657 0.77707,0.77707 v 9.11745 c 0,0.43049 -0.34658,0.77707 -0.77707,0.77707 h -10.93061 c -0.4305,0 -0.77707,-0.34658 -0.77707,-0.77707 v -9.11745 c 0,-0.4305 0.34657,-0.77707 0.77707,-0.77707 z m -58.83615,26.54659 h 10.9306 c 0.4305,0 0.77707,0.34657 0.77707,0.77707 v 9.11745 c 0,0.4305 -0.34657,0.77707 -0.77707,0.77707 h -10.9306 c -0.4305,0 -0.77708,-0.34657 -0.77708,-0.77707 v -9.11745 c 0,-0.4305 0.34658,-0.77707 0.77708,-0.77707 z m 29.41807,0 h 10.93061 c 0.43049,0 0.77707,0.34657 0.77707,0.77707 v 9.11745 c 0,0.4305 -0.34658,0.77707 -0.77707,0.77707 H 163.696 c -0.43049,0 -0.77707,-0.34657 -0.77707,-0.77707 v -9.11745 c 0,-0.4305 0.34658,-0.77707 0.77707,-0.77707 z m 29.41808,0 h 10.93061 c 0.43049,0 0.77707,0.34657 0.77707,0.77707 v 9.11745 c 0,0.4305 -0.34658,0.77707 -0.77707,0.77707 h -10.93061 c -0.4305,0 -0.77707,-0.34657 -0.77707,-0.77707 v -9.11745 c 0,-0.4305 0.34657,-0.77707 0.77707,-0.77707 z"
     transform="translate(-102.72843,-87.872157)"
     ry="0.77707076" /><rect
     style="fill:none;fill-opacity:1;stroke:#1d3f58;stroke-width:7.157;stroke-dasharray:none;stroke-opacity:1"
     id="path51"
     width="12.484745"
     height="10.671591"
     x="31.031452"
     y="26.460939"
     ry="0.77707076" /></svg>
