<?xml version="1.0" encoding="UTF-8" standalone="no"?>
<!-- Created with Inkscape (http://www.inkscape.org/) -->

<svg
   width="188.2601mm"
   height="128.94089mm"
   viewBox="0 0 188.2601 128.94089"
   version="1.1"
   id="svg1"
   inkscape:version="1.3.2 (091e20e, 2023-11-25, custom)"
   sodipodi:docname="service.svg"
   inkscape:export-filename="..\..\public\assets\service.svg"
   inkscape:export-xdpi="96"
   inkscape:export-ydpi="96"
   xmlns:inkscape="http://www.inkscape.org/namespaces/inkscape"
   xmlns:sodipodi="http://sodipodi.sourceforge.net/DTD/sodipodi-0.dtd"
   xmlns="http://www.w3.org/2000/svg"
   xmlns:svg="http://www.w3.org/2000/svg">
  <sodipodi:namedview
     id="namedview1"
     pagecolor="#ffffff"
     bordercolor="#000000"
     borderopacity="0.25"
     inkscape:showpageshadow="2"
     inkscape:pageopacity="0.0"
     inkscape:pagecheckerboard="0"
     inkscape:deskcolor="#d1d1d1"
     inkscape:document-units="mm"
     inkscape:zoom="0.72782685"
     inkscape:cx="407.37711"
     inkscape:cy="544.77243"
     inkscape:window-width="1920"
     inkscape:window-height="1094"
     inkscape:window-x="-11"
     inkscape:window-y="-11"
     inkscape:window-maximized="1"
     inkscape:current-layer="svg1" />
  <defs
     id="defs1">
    <inkscape:path-effect
       effect="mirror_symmetry"
       start_point="115.13664,34.187573"
       end_point="115.13664,186.75759"
       center_point="115.13664,110.47258"
       id="path-effect6"
       is_visible="true"
       lpeversion="1.2"
       lpesatellites=""
       mode="free"
       discard_orig_path="false"
       fuse_paths="false"
       oposite_fuse="false"
       split_items="false"
       split_open="false"
       link_styles="false" />
  </defs>
  <path
     id="path2"
     style="fill:#1d3f58;fill-opacity:1;stroke:none;stroke-width:13"
     d="m 115.13664,34.187577 c -12.31041,0 -23.721524,6.588984 -29.876728,17.25011 -6.155205,10.661127 -6.155205,23.838577 0,34.499703 6.155204,10.661126 17.566318,17.25011 29.876728,17.25011 V 84.187626 c -5.55283,0 -10.64757,-2.941018 -13.42399,-7.749914 -2.776413,-4.808897 -2.776413,-10.691449 0,-15.500346 2.77642,-4.808896 7.87116,-7.749915 13.42399,-7.749915 z M 44.83809,62.37087 c -17.014192,0 -31.000175,13.985983 -31.000175,31.000175 0,17.014185 13.985983,31.000175 31.000175,31.000175 17.014191,0 30.999658,-13.98599 30.999658,-31.000175 0,-17.014192 -13.985467,-31.000175 -30.999658,-31.000175 z m 0,18.000452 c 7.286289,0 12.999723,5.713434 12.999723,12.999723 0,7.286285 -5.713434,13.000235 -12.999723,13.000235 -7.28629,0 -13.00024,-5.71395 -13.00024,-13.000235 0,-7.286289 5.71395,-12.999723 13.00024,-12.999723 z m 70.29855,27.847398 C 96.886038,107.87599 75.819162,122.40851 70.883529,135.26358 59.600047,123.94416 30.360131,124.27031 16.480648,138.5719 2.6011641,152.8735 3.6559346,174.81553 3.8555786,186.75759 H 24.048661 c 0,0 -4.345722,-15.80758 7.139099,-28.42255 11.484822,-12.61497 29.609883,-7.76316 32.667257,-1.5565 -1.817624,10.59893 -2.181262,18.89471 -2.181262,29.61577 l 23.402706,0.36328 c -0.05117,-9.65537 -2.352089,-21.65745 3.49591,-37.23132 5.848,-15.57387 17.473269,-18.53276 26.564269,-19.14663 z m 0,-74.031143 c 12.31041,0 23.72152,6.588984 29.87673,17.25011 6.1552,10.661127 6.1552,23.838577 0,34.499703 -6.15521,10.661126 -17.56632,17.25011 -29.87673,17.25011 V 84.187626 c 5.55283,0 10.64757,-2.941018 13.42399,-7.749914 2.77641,-4.808897 2.77641,-10.691449 0,-15.500346 -2.77642,-4.808896 -7.87116,-7.749915 -13.42399,-7.749915 z m 70.29855,28.183293 c 17.01419,0 31.00017,13.985983 31.00017,31.000175 0,17.014185 -13.98598,31.000175 -31.00017,31.000175 -17.01419,0 -30.99966,-13.98599 -30.99966,-31.000175 0,-17.014192 13.98547,-31.000175 30.99966,-31.000175 z m 0,18.000452 c -7.28629,0 -12.99972,5.713434 -12.99972,12.999723 0,7.286285 5.71343,13.000235 12.99972,13.000235 7.28629,0 13.00024,-5.71395 13.00024,-13.000235 0,-7.286289 -5.71395,-12.999723 -13.00024,-12.999723 z m -70.29855,27.847398 c 18.2506,-0.34273 39.31748,14.18979 44.25311,27.04486 11.28348,-11.31942 40.5234,-10.99327 54.40288,3.30832 13.87949,14.3016 12.82472,36.24363 12.62507,48.18569 h -20.19308 c 0,0 4.34572,-15.80758 -7.1391,-28.42255 -11.48482,-12.61497 -29.60988,-7.76316 -32.66726,-1.5565 1.81763,10.59893 2.18126,18.89471 2.18126,29.61577 l -23.4027,0.36328 c 0.0512,-9.65537 2.35209,-21.65745 -3.49591,-37.23132 -5.848,-15.57387 -17.47327,-18.53276 -26.56427,-19.14663 z"
     inkscape:path-effect="#path-effect6"
     inkscape:original-d="m 115.13664,34.187577 c -12.31041,0 -23.721524,6.588984 -29.876728,17.25011 -6.155205,10.661127 -6.155205,23.838577 0,34.499703 6.155204,10.661126 17.566318,17.25011 29.876728,17.25011 V 84.187626 c -5.55283,0 -10.64757,-2.941018 -13.42399,-7.749914 -2.776413,-4.808897 -2.776413,-10.691449 0,-15.500346 2.77642,-4.808896 7.87116,-7.749915 13.42399,-7.749915 z M 44.83809,62.37087 c -17.014192,0 -31.000175,13.985983 -31.000175,31.000175 0,17.014185 13.985983,31.000175 31.000175,31.000175 17.014191,0 30.999658,-13.98599 30.999658,-31.000175 0,-17.014192 -13.985467,-31.000175 -30.999658,-31.000175 z m 0,18.000452 c 7.286289,0 12.999723,5.713434 12.999723,12.999723 0,7.286285 -5.713434,13.000235 -12.999723,13.000235 -7.28629,0 -13.00024,-5.71395 -13.00024,-13.000235 0,-7.286289 5.71395,-12.999723 13.00024,-12.999723 z m 70.29855,27.847398 C 96.886038,107.87599 75.819162,122.40851 70.883529,135.26358 59.600047,123.94416 30.360131,124.27031 16.480648,138.5719 2.6011641,152.8735 3.6559346,174.81553 3.8555786,186.75759 H 24.048661 c 0,0 -4.345722,-15.80758 7.139099,-28.42255 11.484822,-12.61497 29.609883,-7.76316 32.667257,-1.5565 -1.817624,10.59893 -2.181262,18.89471 -2.181262,29.61577 l 23.402706,0.36328 c -0.05117,-9.65537 -2.352089,-21.65745 3.49591,-37.23132 5.848,-15.57387 17.473269,-18.53276 26.564269,-19.14663 z"
     transform="matrix(0.84512598,0,0,0.84512598,-3.1749105,-28.892807)" />
</svg>
