<?xml version="1.0" encoding="UTF-8" standalone="no"?>
<!-- Created with Inkscape (http://www.inkscape.org/) -->

<svg
   width="78.460091mm"
   height="78.498077mm"
   viewBox="0 0 78.460091 78.498077"
   version="1.1"
   id="svg1"
   xml:space="preserve"
   xmlns:xlink="http://www.w3.org/1999/xlink"
   xmlns="http://www.w3.org/2000/svg"
   xmlns:svg="http://www.w3.org/2000/svg"><defs
     id="defs1" /><image
     width="125.4125"
     height="125.4125"
     preserveAspectRatio="none"
     id="image1"
     x="-19.455496"
     y="-28.091084"
     style="display:none;opacity:1;fill:#1D3F58" /><path
     style="opacity:1;mix-blend-mode:normal;fill:#1D3F58;stroke-width:3"
     d="m 11.313783,0.4015913 c -2.4290673,0.78675 -6.3619673,3.30861 -8.3721013,6.45713 -2.01013396,3.1485297 -2.99585396,6.2455297 -2.93938796,9.4626797 0.05647,3.21715 0.448893,6.76475 1.47406396,11.5209 1.025171,4.75615 2.702851,7.85391 4.707753,12.01657 2.004902,4.16266 9.9307883,13.92578 13.4375143,17.47661 3.506726,3.55083 14.305155,12.70655 19.812119,15.34334 5.50696,2.63679 10.82321,4.91861 15.44981,5.55935 4.6266,0.64074 10.14563,0.10647 14.2197,-1.71115 4.07406,-1.81763 7.55137,-5.65432 8.50062,-7.55874 0.94925,-1.90442 1.01528,-4.29804 0.65176,-7.02448 -0.36353,-2.72644 -1.12366,-4.96271 -2.7466,-6.35066 -1.62295,-1.38794 -5.83845,-2.21422 -5.83845,-2.21422 l -9.15239,-2.58689 c 0,0 -2.16059,-1.10591 -4.18054,-0.72706 -2.01995,0.37885 -2.73416,0.90114 -3.99877,2.18116 l -3.72613,3.77156 c -0.63221,0.63991 -1.09058,1.04514 -2.13571,1.09058 -1.04514,0.0454 -2.31742,-0.49992 -3.77158,-1.59042 -1.45383,-1.09025 -6.984744,-4.88746 -11.109565,-9.18547 -4.12482,-4.29801 -9.793126,-11.89898 -9.793126,-11.89898 0,0 -0.572591,-0.8955 -0.545288,-1.99939 0.0273,-1.10389 1.121762,-2.09484 1.121762,-2.09484 l 4.555089,-4.68361 c 0,0 0.877627,-0.70689 1.230126,-2.12792 0.49896,-2.01145 -0.181761,-4.54406 -0.181761,-4.54406 L 24.347451,4.8061013 c 0,0 -0.347891,-1.20071 -1.817627,-2.36291 -2.597242,-2.05378 -7.573559,-3.06052 -11.216041,-2.04164 z"
     id="path1" /></svg>
